<?xml version="1.0" encoding="UTF-8" ?>
<!DOCTYPE svg PUBLIC "-//W3C//DTD SVG 1.1//EN" "http://www.w3.org/Graphics/SVG/1.1/DTD/svg11.dtd">
<svg width="1067pt" height="1067pt" viewBox="0 0 1067 1067" version="1.1" xmlns="http://www.w3.org/2000/svg">
<g id="#333333ff">
<path fill="#333333" opacity="1.00" d=" M 516.29 164.37 C 557.66 162.87 599.18 168.82 638.67 181.13 C 696.62 199.14 749.32 232.95 790.92 277.01 C 826.04 314.33 852.85 359.32 869.41 407.79 C 869.96 409.92 871.74 411.33 873.40 412.63 C 899.89 431.33 925.17 451.95 947.60 475.42 C 965.88 494.60 982.29 515.72 995.13 538.94 C 1005.57 557.95 1013.47 578.58 1016.42 600.15 C 1019.96 625.19 1016.16 651.28 1005.14 674.09 C 992.91 699.64 972.08 720.16 948.60 735.56 C 921.21 753.53 890.37 765.68 858.79 774.01 C 830.75 781.36 802.03 785.81 773.21 788.68 C 770.11 788.64 767.35 790.10 765.21 792.26 C 719.57 832.63 663.16 860.49 603.49 872.69 C 504.35 894.32 396.62 870.18 315.58 809.32 C 259.67 767.22 215.88 708.77 192.71 642.62 C 191.37 639.11 190.90 634.78 187.59 632.47 C 156.42 610.18 126.55 585.66 101.24 556.76 C 75.88 527.72 54.32 494.00 45.63 456.02 C 39.45 429.83 41.42 401.75 51.81 376.88 C 62.84 349.83 83.57 327.77 107.44 311.42 C 132.89 294.04 161.56 281.79 191.01 272.99 C 221.27 264.01 252.56 258.86 283.96 255.96 C 287.39 255.62 291.25 255.53 293.90 252.98 C 354.94 199.13 434.84 166.85 516.29 164.37 M 510.59 188.87 C 446.61 192.80 383.77 215.16 332.05 253.10 C 272.59 296.76 228.18 360.65 208.56 431.81 C 206.59 438.36 205.60 445.25 206.27 452.09 C 207.63 464.93 213.46 476.81 220.70 487.33 C 230.33 501.66 242.62 513.97 255.52 525.35 C 285.85 551.54 320.67 571.97 356.60 589.46 C 392.84 606.91 430.56 621.21 468.99 633.01 C 515.08 646.96 562.27 657.38 610.07 663.32 C 654.05 668.60 698.70 670.97 742.80 665.79 C 769.62 662.35 796.68 656.58 820.73 643.78 C 834.00 636.40 846.89 625.82 851.59 610.83 C 855.95 597.27 858.46 583.19 860.56 569.14 C 866.08 529.94 864.50 489.77 856.19 451.08 C 840.02 376.47 797.50 307.77 737.41 260.59 C 673.95 210.06 591.58 183.88 510.59 188.87 M 158.87 309.94 C 135.87 320.03 113.94 333.34 96.28 351.38 C 78.89 369.67 67.18 393.92 66.09 419.33 C 64.60 443.68 71.89 467.72 82.81 489.24 C 102.45 526.93 132.20 558.32 164.63 585.32 C 224.40 634.98 293.98 671.50 365.95 700.06 C 384.70 707.75 404.04 713.83 423.13 720.56 C 449.15 728.56 475.40 735.79 501.87 742.12 C 523.22 747.41 544.92 751.09 566.49 755.38 C 630.35 765.32 695.25 770.88 759.84 766.16 C 792.45 763.51 825.02 758.91 856.63 750.28 C 890.99 740.68 924.97 726.68 952.41 703.37 C 967.49 690.62 980.21 674.68 987.19 656.07 C 996.94 630.69 995.51 601.95 986.29 576.64 C 976.81 550.21 960.86 526.57 942.78 505.28 C 925.14 484.55 904.76 466.34 883.42 449.51 C 882.42 448.53 881.13 448.09 879.77 448.08 C 880.02 452.20 881.08 456.21 881.79 460.28 C 891.54 514.40 888.32 570.79 872.63 623.49 C 871.30 628.30 867.72 631.90 864.90 635.86 C 850.62 656.05 827.79 667.90 805.03 676.02 C 787.55 682.35 769.18 685.70 750.84 688.36 C 713.43 693.31 675.52 693.13 637.97 690.07 C 592.48 686.23 547.40 678.20 503.17 667.01 C 462.28 656.58 422.10 643.32 383.17 627.03 C 345.36 611.13 308.65 592.29 274.71 569.19 C 247.17 550.07 220.62 528.32 201.54 500.42 C 190.46 484.08 181.91 465.05 182.52 444.93 C 182.79 438.12 184.00 431.37 186.09 424.89 C 200.72 373.49 226.97 325.39 262.63 285.55 C 263.67 284.66 263.85 283.35 263.81 282.07 C 227.92 287.17 192.19 295.40 158.87 309.94 M 224.29 656.67 C 252.03 720.28 300.52 774.46 360.17 809.80 C 420.02 844.83 490.86 861.46 560.03 854.80 C 620.07 849.20 678.86 827.60 727.33 791.56 C 712.54 791.51 697.74 791.85 682.96 791.30 C 652.58 789.68 622.16 787.74 592.07 783.14 C 579.38 781.26 566.61 779.85 554.04 777.22 C 541.71 774.66 529.28 772.55 516.95 769.96 C 499.70 766.07 482.52 761.86 465.39 757.49 C 442.90 750.83 420.29 744.54 398.21 736.59 C 380.31 730.70 362.72 723.94 345.31 716.73 C 306.36 700.71 268.26 682.47 232.03 660.94 C 229.52 659.40 227.04 657.77 224.29 656.67 Z" />
</g>
<g id="#00fcfcff">
<path fill="#00fcfc" opacity="1.00" d=" M 510.59 188.87 C 591.58 183.88 673.95 210.06 737.41 260.59 C 797.50 307.77 840.02 376.47 856.19 451.08 C 864.50 489.77 866.08 529.94 860.56 569.14 C 858.46 583.19 855.95 597.27 851.59 610.83 C 846.89 625.82 834.00 636.40 820.73 643.78 C 796.68 656.58 769.62 662.35 742.80 665.79 C 698.70 670.97 654.05 668.60 610.07 663.32 C 562.27 657.38 515.08 646.96 468.99 633.01 C 430.56 621.21 392.84 606.91 356.60 589.46 C 320.67 571.97 285.85 551.54 255.52 525.35 C 242.62 513.97 230.33 501.66 220.70 487.33 C 213.46 476.81 207.63 464.93 206.27 452.09 C 205.60 445.25 206.59 438.36 208.56 431.81 C 228.18 360.65 272.59 296.76 332.05 253.10 C 383.77 215.16 446.61 192.80 510.59 188.87 Z" />
<path fill="#00fcfc" opacity="1.00" d=" M 224.29 656.67 C 227.04 657.77 229.52 659.40 232.03 660.94 C 268.26 682.47 306.36 700.71 345.31 716.73 C 362.72 723.94 380.31 730.70 398.21 736.59 C 420.29 744.54 442.90 750.83 465.39 757.49 C 482.52 761.86 499.70 766.07 516.95 769.96 C 529.28 772.55 541.71 774.66 554.04 777.22 C 566.61 779.85 579.38 781.26 592.07 783.14 C 622.16 787.74 652.58 789.68 682.96 791.30 C 697.74 791.85 712.54 791.51 727.33 791.56 C 678.86 827.60 620.07 849.20 560.03 854.80 C 490.86 861.46 420.02 844.83 360.17 809.80 C 300.52 774.46 252.03 720.28 224.29 656.67 Z" />
</g>
<g id="#ffff46ff">
<path fill="#ffff46" opacity="1.00" d=" M 158.87 309.94 C 192.19 295.40 227.92 287.17 263.81 282.07 C 263.85 283.35 263.67 284.66 262.63 285.55 C 226.97 325.39 200.72 373.49 186.09 424.89 C 184.00 431.37 182.79 438.12 182.52 444.93 C 181.91 465.05 190.46 484.08 201.54 500.42 C 220.62 528.32 247.17 550.07 274.71 569.19 C 308.65 592.29 345.36 611.13 383.17 627.03 C 422.10 643.32 462.28 656.58 503.17 667.01 C 547.40 678.20 592.48 686.23 637.97 690.07 C 675.52 693.13 713.43 693.31 750.84 688.36 C 769.18 685.70 787.55 682.35 805.03 676.02 C 827.79 667.90 850.62 656.05 864.90 635.86 C 867.72 631.90 871.30 628.30 872.63 623.49 C 888.32 570.79 891.54 514.40 881.79 460.28 C 881.08 456.21 880.02 452.20 879.77 448.08 C 881.13 448.09 882.42 448.53 883.42 449.51 C 904.76 466.34 925.14 484.55 942.78 505.28 C 960.86 526.57 976.81 550.21 986.29 576.64 C 995.51 601.95 996.94 630.69 987.19 656.07 C 980.21 674.68 967.49 690.62 952.41 703.37 C 924.97 726.68 890.99 740.68 856.63 750.28 C 825.02 758.91 792.45 763.51 759.84 766.16 C 695.25 770.88 630.35 765.32 566.49 755.38 C 544.92 751.09 523.22 747.41 501.87 742.12 C 475.40 735.79 449.15 728.56 423.13 720.56 C 404.04 713.83 384.70 707.75 365.95 700.06 C 293.98 671.50 224.40 634.98 164.63 585.32 C 132.20 558.32 102.45 526.93 82.81 489.24 C 71.89 467.72 64.60 443.68 66.09 419.33 C 67.18 393.92 78.89 369.67 96.28 351.38 C 113.94 333.34 135.87 320.03 158.87 309.94 Z" />
</g>
</svg>
